<svg xmlns="http://www.w3.org/2000/svg" xmlns:xlink="http://www.w3.org/1999/xlink" viewBox="0 0 640.43 246.64"><defs><style>.cls-1{isolation:isolate;}.cls-2{fill:url(#New_Gradient_Swatch_copy_2);}.cls-3{fill:none;stroke:#000;stroke-width:7px;}.cls-3,.cls-5{stroke-miterlimit:10;}.cls-4{fill:url(#linear-gradient);}.cls-15,.cls-5,.cls-6{fill:#f1f2f2;}.cls-5{stroke-width:10px;stroke:url(#linear-gradient-2);}.cls-7{opacity:0.83;mix-blend-mode:multiply;}.cls-8,.cls-9{font-size:41px;letter-spacing:-0.01em;}.cls-10,.cls-8{fill:#00aeef;}.cls-10,.cls-11,.cls-13,.cls-14,.cls-16,.cls-8,.cls-9{font-family:OpenSans-BoldItalic, Open Sans;font-weight:700;font-style:italic;}.cls-11,.cls-12,.cls-9{fill:#233f7c;}.cls-10,.cls-11{font-size:14px;letter-spacing:0.02em;}.cls-13{font-size:11px;fill:#fff;letter-spacing:0.02em;}.cls-14,.cls-15,.cls-16{font-size:16px;}.cls-14{fill:#de2437;}.cls-15{font-family:OpenSans-SemiBold, Open Sans;font-weight:600;}.cls-16{fill:#231f20;}</style><linearGradient id="New_Gradient_Swatch_copy_2" x1="612.53" y1="123.45" x2="-0.23" y2="123.45" gradientUnits="userSpaceOnUse"><stop offset="0" stop-color="#ed1c24"/><stop offset="0.41" stop-color="#6b5047"/><stop offset="0.93" stop-color="#231f20"/></linearGradient><linearGradient id="linear-gradient" x1="612.05" y1="87.96" x2="476.91" y2="87.96" gradientUnits="userSpaceOnUse"><stop offset="0" stop-color="#ed1c24"/><stop offset="0" stop-color="#6b5047"/><stop offset="0.93" stop-color="#231f20"/></linearGradient><linearGradient id="linear-gradient-2" x1="69.88" y1="123.74" x2="305.14" y2="123.74" gradientUnits="userSpaceOnUse"><stop offset="0" stop-color="#fff"/><stop offset="0.41" stop-color="#9fa09f"/></linearGradient></defs><g class="cls-1"><g id="Layer_1" data-name="Layer 1"><path class="cls-2" d="M612,106.39c0-.9,0-1.81,0-2.71a5.41,5.41,0,0,1,0-1.46c0-1.18,0-2.35,0-3.53s0-2.36,0-3.54c0,.15,0-.72,0-1.18v-.22s0-.06,0-.06h0c0-1,0-2.3,0-3.63,0-2.49-.11-6.51,0-7.64V82.3c0-.23,0-.47,0-.71a11.45,11.45,0,0,1,0-1.45c0-.27,0-.55,0-.82s0-.54,0-.8c0-.64,0-1.28,0-1.92,0-.06,0-.23,0-.46,0-.52,0-1,0-1.58,0-1.18,0-2.36,0-3.54,0,.24,0-1.46,0-1.46l.51.1V.13H-.23V246.77H612.53V107.93l-.47-.07A9.86,9.86,0,0,1,612,106.39Z" transform="translate(0.23 -0.13)"/><path class="cls-3" d="M258.66,236.05" transform="translate(0.23 -0.13)"/><path class="cls-4" d="M612,82.42V82.3c0-.23,0-.47,0-.71a11.45,11.45,0,0,1,0-1.45c0-.27,0-.55,0-.82s0-.54,0-.8c0-.64,0-1.28,0-1.92,0-.06,0-.23,0-.46,0-.52,0-1,0-1.58,0-1.18,0-2.36,0-3.54a2.75,2.75,0,0,1,0-.42H488.91a12,12,0,0,0-12,12V93.33a12,12,0,0,0,12,12H612v-1.65a5.41,5.41,0,0,1,0-1.46c0-1.18,0-2.35,0-3.53s0-2.36,0-3.54c0,.15,0-.72,0-1.18v-.22s0-.06,0-.06h0c0-1,0-2.3,0-3.63C612,87.57,611.94,83.55,612,82.42Z" transform="translate(0.23 -0.13)"/></g><g id="Layer_2" data-name="Layer 2"><ellipse class="cls-5" cx="187.51" cy="123.74" rx="112.63" ry="69.28"/><ellipse class="cls-6" cx="344.77" cy="122.89" rx="112.63" ry="69.28"/><g class="cls-7"><text class="cls-8" transform="translate(103.46 136.73)">FLYING MONKEYS</text><text class="cls-8" transform="translate(102.46 136.73)">FLYING MONKEYS</text></g><g class="cls-7"><text class="cls-8" transform="translate(102.46 136.73)">FLYING MONKEYS</text></g><text class="cls-9" transform="translate(101.46 136.73)">FLYING MONKEYS</text><g class="cls-7"><text class="cls-10" transform="translate(294.64 152.01)">Freakshow Crush</text></g><text class="cls-11" transform="translate(293.64 152.01)">Freakshow Crush</text><rect class="cls-12" x="320.6" y="160" width="71.83" height="24" rx="12"/><text class="cls-13" transform="translate(322.21 175.01)">Extra Strong</text><text class="cls-14" transform="translate(195.68 98)">Normal is Weird!</text><text class="cls-15" transform="translate(490.81 93.04)">Craft Brewery</text><text class="cls-16" transform="translate(502.23 128.03)">10.2% alc. vol<tspan x="52.04" y="19.2">473 ml</tspan><tspan x="24.35" y="38.4">[1 US Pint]</tspan></text></g></g></svg>